<mxfile host="Electron" agent="Mozilla/5.0 (Windows NT 10.0; Win64; x64) AppleWebKit/537.36 (KHTML, like Gecko) draw.io/24.7.17 Chrome/128.0.6613.36 Electron/32.0.1 Safari/537.36" version="24.7.17">
  <diagram name="Page-1" id="ZS-6Qzis-Um-YGmL6244">
    <mxGraphModel dx="1050" dy="621" grid="1" gridSize="10" guides="1" tooltips="1" connect="1" arrows="1" fold="1" page="1" pageScale="1" pageWidth="827" pageHeight="1169" math="0" shadow="0">
      <root>
        <mxCell id="0" />
        <mxCell id="1" parent="0" />
        <mxCell id="-frnSLoXMxUf4W9Syrju-8" style="edgeStyle=orthogonalEdgeStyle;rounded=0;orthogonalLoop=1;jettySize=auto;html=1;exitX=0.5;exitY=1;exitDx=0;exitDy=0;" parent="1" edge="1">
          <mxGeometry relative="1" as="geometry">
            <mxPoint x="50" y="370" as="sourcePoint" />
            <mxPoint x="50" y="370" as="targetPoint" />
          </mxGeometry>
        </mxCell>
        <mxCell id="-frnSLoXMxUf4W9Syrju-23" style="edgeStyle=orthogonalEdgeStyle;rounded=0;orthogonalLoop=1;jettySize=auto;html=1;entryX=0;entryY=0.5;entryDx=0;entryDy=0;endArrow=none;endFill=0;" parent="1" source="-frnSLoXMxUf4W9Syrju-12" target="-frnSLoXMxUf4W9Syrju-16" edge="1">
          <mxGeometry relative="1" as="geometry">
            <mxPoint x="130" y="170" as="targetPoint" />
          </mxGeometry>
        </mxCell>
        <mxCell id="-frnSLoXMxUf4W9Syrju-24" style="edgeStyle=orthogonalEdgeStyle;rounded=0;orthogonalLoop=1;jettySize=auto;html=1;endArrow=none;endFill=0;" parent="1" target="-frnSLoXMxUf4W9Syrju-15" edge="1">
          <mxGeometry relative="1" as="geometry">
            <mxPoint x="70" y="90" as="sourcePoint" />
            <Array as="points">
              <mxPoint x="65" y="90" />
              <mxPoint x="20" y="90" />
              <mxPoint x="20" y="240" />
              <mxPoint x="80" y="240" />
            </Array>
          </mxGeometry>
        </mxCell>
        <mxCell id="-frnSLoXMxUf4W9Syrju-36" style="edgeStyle=orthogonalEdgeStyle;rounded=0;orthogonalLoop=1;jettySize=auto;html=1;entryX=0;entryY=0.5;entryDx=0;entryDy=0;endArrow=none;endFill=0;" parent="1" source="-frnSLoXMxUf4W9Syrju-12" target="-frnSLoXMxUf4W9Syrju-13" edge="1">
          <mxGeometry relative="1" as="geometry" />
        </mxCell>
        <mxCell id="-frnSLoXMxUf4W9Syrju-12" value="Покупатель" style="shape=umlActor;verticalLabelPosition=bottom;verticalAlign=top;html=1;" parent="1" vertex="1">
          <mxGeometry x="65" y="60" width="30" height="60" as="geometry" />
        </mxCell>
        <mxCell id="-frnSLoXMxUf4W9Syrju-73" style="edgeStyle=orthogonalEdgeStyle;rounded=0;orthogonalLoop=1;jettySize=auto;html=1;endArrow=none;endFill=0;" parent="1" source="-frnSLoXMxUf4W9Syrju-13" target="-frnSLoXMxUf4W9Syrju-29" edge="1">
          <mxGeometry relative="1" as="geometry" />
        </mxCell>
        <mxCell id="-frnSLoXMxUf4W9Syrju-13" value="Посмотреть инфу о товаре" style="ellipse;whiteSpace=wrap;html=1;" parent="1" vertex="1">
          <mxGeometry x="210" y="10" width="140" height="70" as="geometry" />
        </mxCell>
        <mxCell id="-frnSLoXMxUf4W9Syrju-14" value="Инфа о бонусах" style="ellipse;whiteSpace=wrap;html=1;" parent="1" vertex="1">
          <mxGeometry x="680" y="390" width="140" height="70" as="geometry" />
        </mxCell>
        <mxCell id="-frnSLoXMxUf4W9Syrju-15" value="Ближайшие супермаркеты" style="ellipse;whiteSpace=wrap;html=1;" parent="1" vertex="1">
          <mxGeometry x="10" y="270" width="140" height="70" as="geometry" />
        </mxCell>
        <mxCell id="-frnSLoXMxUf4W9Syrju-25" style="edgeStyle=orthogonalEdgeStyle;rounded=0;orthogonalLoop=1;jettySize=auto;html=1;entryX=0.5;entryY=0;entryDx=0;entryDy=0;endArrow=none;endFill=0;" parent="1" source="-frnSLoXMxUf4W9Syrju-16" target="-frnSLoXMxUf4W9Syrju-17" edge="1">
          <mxGeometry relative="1" as="geometry" />
        </mxCell>
        <mxCell id="-frnSLoXMxUf4W9Syrju-26" style="edgeStyle=orthogonalEdgeStyle;rounded=0;orthogonalLoop=1;jettySize=auto;html=1;entryX=0.5;entryY=0;entryDx=0;entryDy=0;exitX=0.5;exitY=1;exitDx=0;exitDy=0;strokeColor=default;endArrow=none;endFill=0;" parent="1" source="-frnSLoXMxUf4W9Syrju-16" target="-frnSLoXMxUf4W9Syrju-18" edge="1">
          <mxGeometry relative="1" as="geometry">
            <mxPoint x="300" y="164.75" as="sourcePoint" />
            <mxPoint x="330.5025253169417" y="230.00126265847086" as="targetPoint" />
          </mxGeometry>
        </mxCell>
        <mxCell id="-frnSLoXMxUf4W9Syrju-16" value="Личный кабинет" style="ellipse;whiteSpace=wrap;html=1;" parent="1" vertex="1">
          <mxGeometry x="210" y="100" width="140" height="70" as="geometry" />
        </mxCell>
        <mxCell id="-frnSLoXMxUf4W9Syrju-17" value="Доступные бонусы" style="ellipse;whiteSpace=wrap;html=1;" parent="1" vertex="1">
          <mxGeometry x="257" y="250" width="140" height="70" as="geometry" />
        </mxCell>
        <mxCell id="-frnSLoXMxUf4W9Syrju-18" value="История покупок" style="ellipse;whiteSpace=wrap;html=1;" parent="1" vertex="1">
          <mxGeometry x="407" y="250" width="140" height="70" as="geometry" />
        </mxCell>
        <mxCell id="-frnSLoXMxUf4W9Syrju-34" style="edgeStyle=orthogonalEdgeStyle;rounded=0;orthogonalLoop=1;jettySize=auto;html=1;entryX=1;entryY=0.5;entryDx=0;entryDy=0;endArrow=none;endFill=0;" parent="1" source="-frnSLoXMxUf4W9Syrju-29" target="-frnSLoXMxUf4W9Syrju-16" edge="1">
          <mxGeometry relative="1" as="geometry" />
        </mxCell>
        <mxCell id="-frnSLoXMxUf4W9Syrju-29" value="СУБД" style="shape=umlActor;verticalLabelPosition=bottom;verticalAlign=top;html=1;" parent="1" vertex="1">
          <mxGeometry x="430" y="70" width="30" height="60" as="geometry" />
        </mxCell>
        <mxCell id="-frnSLoXMxUf4W9Syrju-37" value="Инфа о товарах" style="ellipse;whiteSpace=wrap;html=1;" parent="1" vertex="1">
          <mxGeometry x="520" y="390" width="140" height="70" as="geometry" />
        </mxCell>
        <mxCell id="-frnSLoXMxUf4W9Syrju-39" style="edgeStyle=orthogonalEdgeStyle;rounded=0;orthogonalLoop=1;jettySize=auto;html=1;entryX=0.5;entryY=1;entryDx=0;entryDy=0;endArrow=none;endFill=0;" parent="1" source="-frnSLoXMxUf4W9Syrju-38" target="-frnSLoXMxUf4W9Syrju-37" edge="1">
          <mxGeometry relative="1" as="geometry" />
        </mxCell>
        <mxCell id="-frnSLoXMxUf4W9Syrju-40" style="edgeStyle=orthogonalEdgeStyle;rounded=0;orthogonalLoop=1;jettySize=auto;html=1;endArrow=none;endFill=0;" parent="1" source="-frnSLoXMxUf4W9Syrju-38" target="-frnSLoXMxUf4W9Syrju-14" edge="1">
          <mxGeometry relative="1" as="geometry" />
        </mxCell>
        <mxCell id="-frnSLoXMxUf4W9Syrju-38" value="Супермаркеты-партнеры" style="shape=umlActor;verticalLabelPosition=bottom;verticalAlign=top;html=1;" parent="1" vertex="1">
          <mxGeometry x="655" y="510" width="30" height="60" as="geometry" />
        </mxCell>
        <mxCell id="-frnSLoXMxUf4W9Syrju-41" value="БД" style="shape=umlActor;verticalLabelPosition=bottom;verticalAlign=top;html=1;" parent="1" vertex="1">
          <mxGeometry x="770" y="70" width="30" height="60" as="geometry" />
        </mxCell>
        <mxCell id="-frnSLoXMxUf4W9Syrju-43" style="edgeStyle=orthogonalEdgeStyle;rounded=0;orthogonalLoop=1;jettySize=auto;html=1;endArrow=none;endFill=0;" parent="1" source="-frnSLoXMxUf4W9Syrju-42" target="-frnSLoXMxUf4W9Syrju-29" edge="1">
          <mxGeometry relative="1" as="geometry" />
        </mxCell>
        <mxCell id="-frnSLoXMxUf4W9Syrju-44" style="edgeStyle=orthogonalEdgeStyle;rounded=0;orthogonalLoop=1;jettySize=auto;html=1;endArrow=none;endFill=0;" parent="1" source="-frnSLoXMxUf4W9Syrju-42" target="-frnSLoXMxUf4W9Syrju-41" edge="1">
          <mxGeometry relative="1" as="geometry" />
        </mxCell>
        <mxCell id="-frnSLoXMxUf4W9Syrju-42" value="Сообщить инфу о товаре&lt;span style=&quot;background-color: initial;&quot;&gt;&amp;nbsp;&lt;/span&gt;" style="ellipse;whiteSpace=wrap;html=1;" parent="1" vertex="1">
          <mxGeometry x="570" y="20" width="140" height="70" as="geometry" />
        </mxCell>
        <mxCell id="-frnSLoXMxUf4W9Syrju-48" style="edgeStyle=orthogonalEdgeStyle;rounded=0;orthogonalLoop=1;jettySize=auto;html=1;endArrow=none;endFill=0;" parent="1" source="-frnSLoXMxUf4W9Syrju-45" target="-frnSLoXMxUf4W9Syrju-41" edge="1">
          <mxGeometry relative="1" as="geometry" />
        </mxCell>
        <mxCell id="-frnSLoXMxUf4W9Syrju-51" style="edgeStyle=orthogonalEdgeStyle;rounded=0;orthogonalLoop=1;jettySize=auto;html=1;endArrow=none;endFill=0;" parent="1" source="-frnSLoXMxUf4W9Syrju-45" target="-frnSLoXMxUf4W9Syrju-29" edge="1">
          <mxGeometry relative="1" as="geometry" />
        </mxCell>
        <mxCell id="-frnSLoXMxUf4W9Syrju-45" value="Сообщить личные данные пользователя" style="ellipse;whiteSpace=wrap;html=1;" parent="1" vertex="1">
          <mxGeometry x="570" y="100" width="140" height="70" as="geometry" />
        </mxCell>
        <mxCell id="-frnSLoXMxUf4W9Syrju-56" style="edgeStyle=orthogonalEdgeStyle;rounded=0;orthogonalLoop=1;jettySize=auto;html=1;endArrow=none;endFill=0;" parent="1" source="-frnSLoXMxUf4W9Syrju-52" target="-frnSLoXMxUf4W9Syrju-55" edge="1">
          <mxGeometry relative="1" as="geometry" />
        </mxCell>
        <mxCell id="-frnSLoXMxUf4W9Syrju-52" value="Менеджер" style="shape=umlActor;verticalLabelPosition=bottom;verticalAlign=top;html=1;" parent="1" vertex="1">
          <mxGeometry x="655" y="310" width="30" height="60" as="geometry" />
        </mxCell>
        <mxCell id="-frnSLoXMxUf4W9Syrju-53" style="edgeStyle=orthogonalEdgeStyle;rounded=0;orthogonalLoop=1;jettySize=auto;html=1;entryX=0;entryY=0.3333333333333333;entryDx=0;entryDy=0;entryPerimeter=0;endArrow=none;endFill=0;" parent="1" source="-frnSLoXMxUf4W9Syrju-37" target="-frnSLoXMxUf4W9Syrju-52" edge="1">
          <mxGeometry relative="1" as="geometry" />
        </mxCell>
        <mxCell id="CL8F12Ku2pKEsv4tFXbH-1" style="edgeStyle=orthogonalEdgeStyle;rounded=0;orthogonalLoop=1;jettySize=auto;html=1;endArrow=none;endFill=0;" edge="1" parent="1" source="-frnSLoXMxUf4W9Syrju-55" target="-frnSLoXMxUf4W9Syrju-29">
          <mxGeometry relative="1" as="geometry">
            <Array as="points">
              <mxPoint x="690" y="190" />
              <mxPoint x="445" y="190" />
            </Array>
          </mxGeometry>
        </mxCell>
        <mxCell id="-frnSLoXMxUf4W9Syrju-55" value="Отредактировать инфу" style="ellipse;whiteSpace=wrap;html=1;" parent="1" vertex="1">
          <mxGeometry x="610" y="210" width="140" height="70" as="geometry" />
        </mxCell>
        <mxCell id="-frnSLoXMxUf4W9Syrju-64" style="edgeStyle=orthogonalEdgeStyle;rounded=0;orthogonalLoop=1;jettySize=auto;html=1;endArrow=none;endFill=0;" parent="1" source="-frnSLoXMxUf4W9Syrju-63" target="-frnSLoXMxUf4W9Syrju-15" edge="1">
          <mxGeometry relative="1" as="geometry" />
        </mxCell>
        <mxCell id="-frnSLoXMxUf4W9Syrju-63" value="Карта" style="shape=umlActor;verticalLabelPosition=bottom;verticalAlign=top;html=1;" parent="1" vertex="1">
          <mxGeometry x="65" y="370" width="30" height="60" as="geometry" />
        </mxCell>
        <mxCell id="-frnSLoXMxUf4W9Syrju-66" style="edgeStyle=orthogonalEdgeStyle;rounded=0;orthogonalLoop=1;jettySize=auto;html=1;entryX=1;entryY=0.3333333333333333;entryDx=0;entryDy=0;entryPerimeter=0;endArrow=none;endFill=0;" parent="1" source="-frnSLoXMxUf4W9Syrju-14" target="-frnSLoXMxUf4W9Syrju-52" edge="1">
          <mxGeometry relative="1" as="geometry" />
        </mxCell>
        <mxCell id="-frnSLoXMxUf4W9Syrju-71" style="edgeStyle=orthogonalEdgeStyle;rounded=0;orthogonalLoop=1;jettySize=auto;html=1;endArrow=none;endFill=0;" parent="1" source="-frnSLoXMxUf4W9Syrju-67" edge="1">
          <mxGeometry relative="1" as="geometry">
            <mxPoint x="80" y="130" as="targetPoint" />
          </mxGeometry>
        </mxCell>
        <mxCell id="-frnSLoXMxUf4W9Syrju-67" value="Собрать корзину товаров" style="ellipse;whiteSpace=wrap;html=1;" parent="1" vertex="1">
          <mxGeometry x="100" y="170" width="140" height="70" as="geometry" />
        </mxCell>
      </root>
    </mxGraphModel>
  </diagram>
</mxfile>
